<svg width="161" height="100" viewBox="0 0 161 100" fill="none" xmlns="http://www.w3.org/2000/svg">
<g clip-path="url(#clip0_2_374)">
<path d="M6.75 98.9989H9.584L16.361 80.0989H13.635L8.184 95.8669L2.7 80.0989H0L6.75 98.9989ZM18.576 80.0989V98.9989H21.084V80.0989H18.576ZM27.648 96.6229V90.6289H35.613V88.2799H27.648V82.4749H36.284V80.0989H25.137V98.9989H36.423V96.6229H27.648ZM51.543 80.0989H37.908V82.4749H43.47V98.9989H45.954V82.4749H51.543V80.0989ZM65.718 98.9989H68.553L75.33 80.0989H72.603L67.149 95.8669L61.668 80.0989H58.968L65.718 98.9989ZM77.544 80.0989V98.9989H80.055V80.0989H77.544ZM86.616 96.6229V80.0989H84.105V98.9989H94.77V96.6229H86.616ZM99.792 96.6229V80.0989H97.284V98.9989H107.949V96.6229H99.792ZM123.444 98.9989H126.117L119.07 80.0989H116.235L109.184 98.9989H111.857L113.396 94.7599H121.896L123.444 98.9989ZM114.264 92.4109L117.639 83.0959L121.039 92.4109H114.264ZM145.908 89.6299H136.458V91.8989H143.397C142.911 94.7339 140.589 96.8989 136.674 96.8989C135.69 96.9442 134.707 96.7865 133.787 96.4356C132.866 96.0847 132.028 95.5481 131.324 94.8592C130.62 94.1703 130.065 93.3438 129.694 92.4313C129.323 91.5188 129.144 90.5397 129.168 89.5549C129.14 88.5769 129.313 87.6037 129.676 86.695C130.038 85.7862 130.583 84.9613 131.276 84.2709C131.969 83.5804 132.796 83.0391 133.706 82.6802C134.616 82.3213 135.59 82.1524 136.568 82.1839C137.789 82.1525 138.996 82.452 140.061 83.0505C141.125 83.6491 142.008 84.5244 142.616 85.5839L144.776 84.3149C143.928 82.9074 142.727 81.746 141.292 80.9456C139.857 80.1452 138.238 79.7337 136.595 79.7519C135.294 79.7202 134.001 79.9512 132.791 80.431C131.582 80.9109 130.482 81.6298 129.557 82.5447C128.631 83.4597 127.9 84.5518 127.407 85.7558C126.914 86.9598 126.669 88.2509 126.686 89.5519C126.67 90.8571 126.918 92.1519 127.416 93.3588C127.913 94.5656 128.649 95.6595 129.579 96.5749C130.51 97.4902 131.616 98.208 132.831 98.6852C134.045 99.1624 135.344 99.3892 136.649 99.3519C142.349 99.3519 145.91 95.5719 145.91 90.7659L145.908 89.6299ZM151.47 96.6229V90.6289H159.435V88.2799H151.47V82.4749H160.11V80.0989H148.959V98.9989H160.245V96.6229H151.47Z" fill="white"/>
<path d="M67.8791 10.1838C67.8791 10.1838 75.3049 17.5844 79.2639 26.2844C81.7671 32.2221 83.2695 38.5333 83.7092 44.9621C83.7092 44.9621 84.7095 34.4452 88.7785 25.7512C91.6548 19.995 95.4385 14.7388 99.9846 10.1848C99.9846 10.1848 91.7352 17.1262 83.7092 17.1262C75.6832 17.1262 67.8791 10.1838 67.8791 10.1838Z" fill="white"/>
<path d="M100.112 10.154C100.112 10.154 100.13 20.6376 96.7767 29.5874C94.3485 35.5545 90.9495 41.0786 86.7174 45.9357C86.7174 45.9357 94.8604 39.2069 103.885 35.9365C109.989 33.9017 116.38 32.8615 122.814 32.8557C122.814 32.8557 112.076 31.9286 106.4 26.2527C100.724 20.5767 100.112 10.154 100.112 10.154Z" fill="white"/>
<path d="M122.813 32.748C122.813 32.748 115.413 40.174 106.713 44.131C100.777 46.6334 94.4672 48.136 88.0401 48.578C88.0401 48.578 98.5561 49.578 107.25 53.647C113.005 56.5241 118.26 60.3077 122.813 64.853C122.813 64.853 115.876 56.605 115.876 48.578C115.876 40.551 122.813 32.748 122.813 32.748Z" fill="white"/>
<path d="M45.4561 32.748C45.4561 32.748 52.8561 40.174 61.5561 44.131C67.4925 46.6334 73.8021 48.1361 80.2291 48.578C80.2291 48.578 69.7121 49.578 61.0191 53.647C55.2644 56.524 50.0097 60.3077 45.4561 64.853C45.4561 64.853 52.3931 56.604 52.3931 48.578C52.3931 40.552 45.4561 32.748 45.4561 32.748Z" fill="white"/>
<path d="M68.1579 10.1538C68.1579 10.1538 68.1395 20.6373 71.4933 29.5872C73.9215 35.5543 77.3205 41.0784 81.5526 45.9355C81.5526 45.9355 73.4089 39.206 64.3848 35.9363C58.2812 33.9015 51.8901 32.8613 45.4562 32.8554C45.4562 32.8554 56.1944 31.9277 61.8696 26.2525C67.5448 20.5772 68.1579 10.1538 68.1579 10.1538Z" fill="white"/>
<path d="M42.7451 56C46.8873 56 50.2451 52.6421 50.2451 48.5C50.2451 44.3579 46.8873 41 42.7451 41C38.603 41 35.2451 44.3579 35.2451 48.5C35.2451 52.6421 38.603 56 42.7451 56Z" fill="white"/>
<path d="M124.745 56C128.887 56 132.245 52.6421 132.245 48.5C132.245 44.3579 128.887 41 124.745 41C120.603 41 117.245 44.3579 117.245 48.5C117.245 52.6421 120.603 56 124.745 56Z" fill="white"/>
<path d="M113.245 28C117.663 28 121.245 24.4183 121.245 20C121.245 15.5817 117.663 12 113.245 12C108.827 12 105.245 15.5817 105.245 20C105.245 24.4183 108.827 28 113.245 28Z" fill="white"/>
<path d="M83.7451 15C87.8873 15 91.2451 11.6421 91.2451 7.5C91.2451 3.35786 87.8873 0 83.7451 0C79.603 0 76.2451 3.35786 76.2451 7.5C76.2451 11.6421 79.603 15 83.7451 15Z" fill="white"/>
<path d="M54.7451 28C58.8873 28 62.2451 24.4183 62.2451 20C62.2451 15.5817 58.8873 12 54.7451 12C50.603 12 47.2451 15.5817 47.2451 20C47.2451 24.4183 50.603 28 54.7451 28Z" fill="white"/>
</g>
<defs>
<clipPath id="clip0_2_374">
<rect width="160.245" height="99.35" fill="white"/>
</clipPath>
</defs>
</svg>
